{
	"asset":{
		"version":"2.0",
		"generator":""
	},
	"scenes":[{
		"nodes":[0,
		1]
	}],
	"samplers":[{
		"magFilter":9729,
		"minFilter":9729,
		"wrapS":10497,
		"wrapT":10497
	},
	{
		"magFilter":9729,
		"minFilter":9729,
		"wrapS":10497,
		"wrapT":10497
	}],
	"nodes":[{
		"name":"Camera",
		"camera":0,
		"translation":[-0.011091584339737893,
		1.4269574880599976,
		5.366027355194092],
		"rotation":[0.0,
		0.0,
		0.0,
		-1.0],
		"scale":[1.0,
		1.0,
		1.0]
	},
	{
		"name":"Sweep",
		"mesh":0,
		"translation":[0.17948175966739655,
		2.5215349197387697,
		-0.3452637195587158],
		"rotation":[0.0,
		0.0,
		0.0,
		-1.0],
		"scale":[1.0,
		1.0,
		1.0]
	}],
	"meshes":[{
		"name":"Sweep",
		"primitives":[{
			"attributes":{
				"POSITION":1,
				"NORMAL":2,
				"TEXCOORD_0":3
			},
			"indices":0,
			"material":0
		}]
	}],
	"cameras":[{
		"type":"perspective",
		"perspective":{
			"znear":0.009999999776482582,
			"zfar":10000000000.0,
			"aspectRatio":1.0,
			"yfov":0.950021505355835
		}
	}],
	"accessors":[{
		"max":[387],
		"bufferView":0,
		"type":"SCALAR",
		"componentType":5123,
		"count":750,
		"byteOffset":0,
		"min":[0]
	},
	{
		"max":[3.4762778282165529,
		1.9308561086654664,
		3.752570152282715],
		"bufferView":1,
		"type":"VEC3",
		"componentType":5126,
		"count":388,
		"byteOffset":0,
		"min":[-2.8262319564819338,
		-2.239377498626709,
		-1.378410816192627]
	},
	{
		"max":[1.0,
		1.0,
		1.0],
		"bufferView":1,
		"type":"VEC3",
		"componentType":5126,
		"count":388,
		"byteOffset":12,
		"min":[-1.0,
		-1.0,
		-1.0]
	},
	{
		"max":[2.06109619140625,
		1.068206787109375],
		"bufferView":1,
		"type":"VEC2",
		"componentType":5126,
		"count":388,
		"byteOffset":24,
		"min":[-0.80145263671875,
		-0.07975578308105469]
	}],
	"bufferViews":[{
		"buffer":0,
		"byteOffset":0,
		"byteLength":1500,
		"target":34963
	},
	{
		"buffer":0,
		"byteOffset":1500,
		"byteLength":12416,
		"target":34962,
		"byteStride":32
	}],
	"buffers":[{
		"uri":"data:application/octet-stream;base64,",
		"byteLength":13916
	}],
	"images":[{
		"uri":"data:image/jpeg;base64,"
	}],
	"textures":[{
		"sampler":0,
		"source":0
	},
	{
		"sampler":1,
		"source":0
	}],
	"materials":[{
		"pbrMetallicRoughness":{
			"baseColorTexture":{
				"index":0
			},
			"baseColorFactor":[1.0,
			1.0,
			1.0,
			1.0],
			"metallicFactor":1.0,
			"roughnessFactor":1.0
		},
		"emissiveTexture":{
			"index":1
		},
		"emissiveFactor":[0.9999999403953552,
		0.9999999403953552,
		0.9999999403953552],
		"alphaMode":"OPAQUE",
		"doubleSided":true,
		"name":"Default"
	}]
}