<svg width="394" height="394" viewBox="0 0 394 394" fill="none" xmlns="http://www.w3.org/2000/svg">
<path d="M71.1051 101.263C80.2658 101.263 87.6921 93.8367 87.6921 84.676C87.6921 75.5152 80.2658 68.089 71.1051 68.089C61.9443 68.089 54.5181 75.5152 54.5181 84.676C54.5181 93.8367 61.9443 101.263 71.1051 101.263Z" fill="white"/>
<path d="M37.1987 99.43C42.8957 112.505 55.9317 121.647 71.1057 121.647C88.3067 121.647 102.763 109.9 106.893 93.991H129.288C95.8737 115.728 73.7777 153.398 73.7777 196.231C73.7777 263.546 128.347 318.115 195.662 318.115C262.977 318.115 317.546 263.546 317.546 196.231C317.546 128.917 262.977 74.347 195.662 74.347C187.293 74.347 179.121 75.191 171.226 76.798C165.819 75.817 159.774 75.361 152.554 75.361H106.893C102.764 59.452 88.3067 47.705 71.1057 47.705C55.9327 47.705 42.8967 56.847 37.1987 69.922H33.5237H28.1147V75.331V94.022V99.431H33.5237L37.1987 99.43ZM195.661 236.219C173.576 236.219 155.673 218.316 155.673 196.231C155.673 174.146 173.576 156.243 195.661 156.243C217.746 156.243 235.649 174.146 235.649 196.231C235.649 218.316 217.746 236.219 195.661 236.219ZM33.5237 75.33H51.1817C52.2517 73.053 53.7197 70.954 55.5527 69.122C59.7067 64.968 65.2307 62.68 71.1057 62.68C76.9807 62.68 82.5048 64.968 86.6588 69.122C89.8768 72.34 91.9737 76.38 92.7567 80.769H152.554C174.282 80.769 184.257 85.149 197.184 94.351L197.237 94.389L216.789 108.806L218.853 105.972L251.576 130.101L242.807 142.143L210.084 118.014L212.19 115.122L192.627 100.697C180.853 92.319 172.265 88.582 152.554 88.582H92.7567C91.9747 92.971 89.8778 97.011 86.6588 100.229C82.5048 104.383 76.9807 106.671 71.1057 106.671C65.2307 106.671 59.7067 104.383 55.5527 100.229C53.7207 98.397 52.2517 96.298 51.1817 94.021H33.5237V75.33Z" fill="white"/>
<path d="M168.146 40.074C168.145 37.297 170.332 36.539 172.521 38.81L186.325 52.434L203.818 35.094C206.93 32.148 208.445 33.914 209.035 37.027C210.217 45.608 205.929 54.108 201.978 59.747L240.26 59.73C235.546 53.758 232.43 47.281 231.08 37.606L225.595 0H224.67L198.851 25.589C196.16 28.367 193.636 28.957 190.522 25.929L164.429 0.0270081H163.588L157.716 40.499C156.373 48.997 154.02 54.215 149.647 59.77L172.448 59.76C169.835 54.629 168.317 47.31 168.146 40.074Z" fill="white"/>
<path d="M267.404 68.212C269.34 66.079 273.125 66.714 278.467 70.526C283.809 74.338 285.688 78.367 284.212 80.725C282.511 83.542 280.536 85.441 277.925 86.781L307.988 108.239C303.935 97.697 306.319 88.855 307.988 79.709L315.564 41.288L312.277 38.942L297.074 28.091C296.528 34.214 292.051 39.908 287.768 42.432L270.118 52.678C261.943 57.18 254.355 62.308 243.068 61.901L263.475 76.467C263.992 73.427 265.126 70.825 267.404 68.212ZM281.318 57.987C281.318 57.987 288.104 53.838 289.463 52.947C290.842 52.174 292.006 53.005 291.723 54.56L289.584 63.784C289.145 65.848 287.423 66.376 283.315 63.444C279.275 60.56 279.411 59.21 281.318 57.987Z" fill="white"/>
<path d="M345.471 99.228L334.849 105.229C329.648 108.167 316.071 114.581 306.148 114.293L322.991 144.107C327.865 135.459 340.366 127.14 345.567 124.202L356.189 118.201C363.441 114.104 368.63 122.092 368.156 133.569L382.875 130.375L371.205 109.718L365.866 100.268L360.486 90.745L348.816 70.088L338.483 81.047C348.56 86.564 352.723 95.131 345.471 99.228Z" fill="white"/>
<path d="M393.633 209.235L391.053 185.65L389.873 174.861L388.684 163.988L386.104 140.403L372.287 146.4C379.37 155.443 379.818 164.958 371.538 165.864L359.411 167.191C353.473 167.84 338.467 168.382 329.462 164.204L333.185 198.244C341.074 192.218 355.842 189.503 361.78 188.853L373.907 187.526C382.187 186.62 383.806 196.007 378.846 206.368L393.633 209.235Z" fill="white"/>
<path d="M28.3859 224.398C51.9339 225.057 58.5299 199.908 58.8969 186.788L59.664 159.371C51.026 164.264 35.9419 164.936 30.0549 164.771C24.0839 164.604 9.14493 163.092 0.793928 157.724L0.0269297 185.141C-0.43307 201.54 4.83794 223.739 28.3859 224.398ZM16.1689 185.76L43.4169 186.523C48.3789 186.662 49.3409 188.372 49.2799 190.559C49.1529 195.1 42.8019 202.498 29.0089 202.112C14.8799 201.717 8.07395 195.298 8.23195 189.663C8.30495 187.055 9.01993 185.56 16.1689 185.76Z" fill="white"/>
<path d="M73.1017 256.089L62.3188 225.009C55.9728 232.643 42.1028 238.613 36.5388 240.543C30.8948 242.501 16.3877 246.376 6.67773 244.313L17.4608 275.393C23.8068 267.759 37.5968 261.817 43.2408 259.859C48.8038 257.928 63.3907 254.025 73.1017 256.089Z" fill="white"/>
<path d="M102.295 308.001C101.887 301.921 99.6981 293.93 91.7071 284.161C81.9581 272.244 63.1881 264.446 47.1681 277.55C31.1481 290.654 33.4731 308.645 46.3641 324.404C54.3551 334.172 65.0271 339.246 68.4021 340.182C70.0661 336.103 75.0631 330.386 80.8581 325.644L85.9371 321.489L71.7141 304.101C70.1211 309.861 56.9481 323.788 50.6091 316.039C46.6141 311.155 53.3281 301.424 61.3371 294.871C66.7421 290.45 79.1861 283.205 85.5251 290.955C92.0771 298.965 89.7561 307.821 88.0511 311.715L102.295 308.001Z" fill="white"/>
<path d="M136.659 329.029C146.002 333.479 147.679 342.479 147.798 346.729L159.096 337.293C156.134 331.968 150.745 325.673 139.352 320.246C125.452 313.625 105.148 314.577 96.248 333.263C87.348 351.949 97.123 367.229 115.505 375.985C126.899 381.412 138.716 381.45 142.167 380.857C141.932 376.458 144.013 369.156 147.233 362.395L150.055 356.47L129.774 346.81C130.79 352.699 124.816 370.914 115.777 366.609C110.08 363.895 112.002 352.23 116.453 342.888C119.455 336.583 127.62 324.723 136.659 329.029Z" fill="white"/>
<path d="M199.319 334.126L166.56 331.125C170.895 340.055 170.611 355.152 170.074 361.017C169.529 366.966 167.074 381.779 161.188 389.773L193.947 392.774C189.611 383.844 189.888 368.831 190.434 362.882C190.97 357.017 193.433 342.12 199.319 334.126Z" fill="white"/>
<path d="M266.042 318.293L246.016 324.443C249.429 327.531 252.433 332.154 254.849 336.868C258.273 342.857 256.28 344.966 250.912 342.39L225.508 330.742L223.578 331.335L207.815 336.176L205.402 336.917C212.803 343.533 218.27 357.608 219.999 363.238C221.753 368.948 225.104 383.585 222.693 393.215L243.282 386.892C236.821 381.043 231.823 369.641 229.531 363.04C227.103 356.569 229.405 354.893 233.561 356.961L276.583 377.544L277.629 377.223L268.737 348.27C267.007 342.64 263.711 327.898 266.042 318.293Z" fill="white"/>
<path d="M332.227 302.439L327.755 297.637L311.317 312.947C317.167 314.167 331.911 326.418 324.585 333.241C319.968 337.541 309.826 331.466 302.773 323.893C298.014 318.783 289.986 306.83 297.312 300.007C304.885 292.954 313.871 294.702 317.867 296.154L313.244 282.179C307.203 282.976 299.369 285.674 290.134 294.275C278.867 304.768 272.29 324 286.396 339.145C300.502 354.29 318.305 350.816 333.204 336.94C342.439 328.339 346.818 317.363 347.535 313.936C343.357 312.537 337.33 307.918 332.227 302.439Z" fill="white"/>
<path d="M350.952 258.129C355.598 258.129 359.365 254.362 359.365 249.716C359.365 245.07 355.598 241.303 350.952 241.303C346.306 241.303 342.539 245.07 342.539 249.716C342.539 254.362 346.306 258.129 350.952 258.129Z" fill="white"/>
<path d="M195.661 200.232C197.871 200.232 199.662 198.441 199.662 196.231C199.662 194.021 197.871 192.23 195.661 192.23C193.451 192.23 191.66 194.021 191.66 196.231C191.66 198.441 193.451 200.232 195.661 200.232Z" fill="white"/>
</svg>
